PathFileType	4	(X/Y/Z)	pose2sim_0-693.trc
DataRate	CameraRate	NumFrames	NumMarkers	Units	OrigDataRate	OrigDataStartFrame	OrigNumFrames
50	50	5	22	m	50	520	694
Frame#	Time	Hip			RHip			RKnee			RAnkle			RBigToe			RSmallToe			RHeel			LHip			LKnee			LAnkle			LBigToe			LSmallToe			LHeel			Neck			Head			Nose			RShoulder			RElbow			RWrist			LShoulder			LElbow			LWrist			
		X1	Y1	Z1	X2	Y2	Z2	X3	Y3	Z3	X4	Y4	Z4	X5	Y5	Z5	X6	Y6	Z6	X7	Y7	Z7	X8	Y8	Z8	X9	Y9	Z9	X10	Y10	Z10	X11	Y11	Z11	X12	Y12	Z12	X13	Y13	Z13	X14	Y14	Z14	X15	Y15	Z15	X16	Y16	Z16	X17	Y17	Z17	X18	Y18	Z18	X19	Y19	Z19	X20	Y20	Z20	X21	Y21	Z21	X22	Y22	Z22	
520	10.4	0.15385180900864548	0.9019756336962774	-0.04477858734079766	0.052442988528838184	0.8972992242075936	-0.04790860469457376	0.014482135642637568	0.4980243622014745	-0.10188992822862747	-0.028230990336812256	0.09890144259174542	-0.1421102570710629	-0.07304929643674173	0.05103406495410477	0.05121984510196897	-0.10635255492290537	0.051518846702156354	-0.011927244564514373	-0.010593006194286688	0.05290301080633393	-0.18309618431462735	0.25874553164614644	0.8898603388304339	-0.04659382038613651	0.28690454353146366	0.4951166370185553	-0.0999137758964893	0.31696151946206963	0.09180001033408836	-0.1364724503357201	0.3519645785804606	0.044478267189943556	0.04712842417298729	0.3904851213321072	0.04637339717766024	-0.016147999749008168	0.3019559170844132	0.04501401738482104	-0.17801662170896929	0.1719611402391123	1.4788284622628833	-0.019080823244996607	0.18822102869524443	1.7035881567925584	0.005185349309461903	0.15976075152987335	1.5922569926015744	0.09327057387614682	0.01010608071131472	1.3821993916599358	-0.040619092909660176	-0.03710617082723934	1.126317209153021	-0.11059631453479479	-0.12177825824643353	0.9050550546371875	-0.17223301864006793	0.3293690716378444	1.3768844825057267	-0.038269347490599646	0.3716022909235738	1.1329111828462652	-0.11177079520639627	0.44279797616166955	0.9160893874348525	-0.18403116416332682
521	10.42	0.1560210392755343	0.8976895808696874	-0.051539931633988276	0.05017047003719509	0.893366796327629	-0.0475487547311571	0.01705293337556462	0.49095495739121087	-0.10270996244277167	-0.026750319290928883	0.10064856064179138	-0.14253726773529088	-0.07211353497125228	0.04890783061085667	0.051907474998358065	-0.10968250014700669	0.05242702413930316	-0.014703381842603981	-0.012066928176353695	0.05924622037207424	-0.18326098900387203	0.26325125075015443	0.8876758657719235	-0.05097373171109726	0.28741041842862824	0.4915906892246231	-0.095085694231002	0.31581187072692296	0.1057522761873517	-0.13108639966378868	0.3599582777700924	0.04639890472818231	0.04939118521215213	0.3949543870930496	0.05059708090235471	-0.01753638417489722	0.30247417996503767	0.062152526821788796	-0.17814529628052816	0.17062589841150272	1.47798485348896	-0.015887057351079398	0.18278162408094972	1.7090531695469153	0.0192579202437932	0.16732928459023	1.5943972026444568	0.11539234618228156	0.0057120160092996915	1.3831158987293215	-0.0336523345619423	-0.03824316909722429	1.1289000966926601	-0.10466530484164373	-0.12592510557814207	0.9071522116443314	-0.1562782208641139	0.33056109284587937	1.379830391787444	-0.03840019128117082	0.3717950843141632	1.1267214467115902	-0.11121845400300898	0.4409385528820197	0.9141739072587751	-0.16659166980651294
522	10.44	0.1559784786527372	0.8941307721249904	-0.05131434363829167	0.05297332206844694	0.8905743668731513	-0.049328715071722797	0.01722443706110011	0.4898598067356885	-0.1011035859566387	-0.02613311663460149	0.10001058637038752	-0.1418771802025709	-0.07436704270104039	0.05112837385994351	0.04123318471015692	-0.11034736793639718	0.05191840925250163	-0.030749070412614488	-0.010373631467357034	0.059887234726589536	-0.19008438897163632	0.26150219998000984	0.8835899255112015	-0.047178138516374826	0.2876202817881817	0.4905156322058749	-0.0935016304247708	0.31471657720445995	0.10354131799765691	-0.1364222233405529	0.3558252466764451	0.04946114172822526	0.05362486584460041	0.39417373508360676	0.05379440585247088	-0.01169115010946461	0.30541644416527286	0.05978396775179109	-0.18192693693277778	0.17072399210769432	1.4789576468752605	-0.015560262025679441	0.18281468224758327	1.7071579639274654	0.019464189598692387	0.1614032002011522	1.5951632157343207	0.1127578347524654	0.007183380971951813	1.3840049150829532	-0.0361851937656959	-0.038068597721946616	1.128630263053846	-0.10355433558725322	-0.12723215776722077	0.9057223631633703	-0.14640248105987264	0.32904233492548896	1.3783636272145885	-0.0426365755453267	0.37164455890733916	1.1240700135396742	-0.11256287254665735	0.4464453841212411	0.915417996421729	-0.15891317905043228
523	10.46	0.15589923862884478	0.8966632621665018	-0.05128058622546533	0.05010194291370695	0.8893977592845231	-0.04834969642110637	0.015961923459151366	0.491647548605366	-0.10539399085147753	-0.027351549712999943	0.09904779872630837	-0.1438138417937844	-0.07444260029735135	0.04969180259370053	0.04423050998711154	-0.10901784738087755	0.0520373267235455	-0.024056875724481012	-0.008414030441191432	0.058780132887480636	-0.18495883539990832	0.2627840273553032	0.8862415883739225	-0.050251745807323084	0.28755973441950655	0.4921787265988265	-0.0953521544835675	0.31444424871964005	0.10394574380783414	-0.13437794858304855	0.3553626747339617	0.05013660116521494	0.05567809076323319	0.3927044526455878	0.052794897327096336	-0.014249089650143437	0.3037391420129072	0.0603105284283978	-0.17710997631879302	0.1693863695489932	1.4799861925300748	-0.019140352008831622	0.18132584662363696	1.7070373247942139	0.010263563837621024	0.16140888024870378	1.596683518818374	0.10188995972997249	0.00582184998311902	1.383765727511632	-0.03949808040842844	-0.03949998037122748	1.1260048121771968	-0.10755426855654797	-0.13001067024684862	0.903132511650283	-0.14620971992607923	0.3289254906675378	1.3780155503399103	-0.04254636090085633	0.3742873119646569	1.123613883134683	-0.1064336515791209	0.4491240181981925	0.9124452719664231	-0.150207994454485
524	10.48	0.1545703006395563	0.9040263742892122	-0.04241849854786392	0.050912392365187076	0.896944911453034	-0.04529269908039196	0.016500191694148767	0.49946230413298337	-0.10151861954956959	-0.026626447935997558	0.0986372467871758	-0.13806327652112307	-0.07725459021440402	0.050380390061526295	0.05130668884348583	-0.1100037129887549	0.05167125014164185	-0.01527628434987421	-0.01343230747915071	0.05280766035664298	-0.1787022401008342	0.2590263797921023	0.8913621432948033	-0.04209932191810623	0.2860478289364091	0.49544662660596506	-0.09570089910229793	0.31353378404286186	0.09269403562304111	-0.13054069935906298	0.35130442693979513	0.04601495056149364	0.054137937839635955	0.38816556426345555	0.04787270733809584	-0.005213994159230355	0.29894363829907167	0.04719412597651344	-0.17570665976269897	0.17020031460363338	1.4792038373178193	-0.020538096882543256	0.18553800128924033	1.704162867949029	0.00064271309998831	0.16079368654765427	1.5906388979776314	0.09156245932860489	0.00833388104630817	1.3793039311644368	-0.04735293933090479	-0.03927707721908468	1.1201860546465925	-0.10918270571292701	-0.12778649413506477	0.8986074913203658	-0.14854873119133083	0.32992359527287846	1.3747965154727908	-0.039754391804838994	0.3785840259479651	1.1256578548132041	-0.10476085616771535	0.4577834508831745	0.9083824524165375	-0.14901221121951744
